<?xml version="1.0" standalone="no"?><!-- Generator: Gravit.io --><svg xmlns="http://www.w3.org/2000/svg" xmlns:xlink="http://www.w3.org/1999/xlink" style="isolation:isolate" viewBox="141.949 519.179 36.103 36.103" width="36.103" height="36.103"><path d=" M 163.282 533.949 L 163.282 522.462 C 163.282 520.65 161.811 519.179 160 519.179 C 158.189 519.179 156.718 520.65 156.718 522.462 L 156.718 533.949 L 145.231 533.949 C 143.419 533.949 141.949 535.419 141.949 537.231 C 141.949 539.042 143.419 540.513 145.231 540.513 L 156.718 540.513 L 156.718 552 C 156.718 553.811 158.189 555.282 160 555.282 C 161.811 555.282 163.282 553.811 163.282 552 L 163.282 540.513 L 174.769 540.513 C 176.581 540.513 178.051 539.042 178.051 537.231 C 178.051 535.419 176.581 533.949 174.769 533.949 L 163.282 533.949 Z " fill="rgb(121,194,116)"/></svg>