<?xml version="1.0" standalone="no"?><!-- Generator: Gravit.io --><svg xmlns="http://www.w3.org/2000/svg" xmlns:xlink="http://www.w3.org/1999/xlink" style="isolation:isolate" viewBox="73 110 34 40.03" width="34" height="40.03"><path d=" M 82.255 130.877 L 83.33 130.877 C 85.35 130.877 86.989 132.516 86.989 134.536 L 86.989 146.362 C 86.989 148.382 85.35 150.022 83.33 150.022 L 82.255 150.022 C 80.235 150.022 78.596 148.382 78.596 146.362 L 78.596 134.536 C 78.596 132.516 80.235 130.877 82.255 130.877 Z  M 82.123 128.818 L 87.504 114.738 C 88.316 112.612 87.16 110.545 84.923 110.125 L 84.658 110.075 C 82.422 109.655 79.946 111.04 79.134 113.165 L 73.388 128.203 C 73.215 128.654 73.132 129.104 73.135 129.533 C 73.044 129.852 73 130.189 73 130.537 L 73 145.964 C 73 148.156 74.743 149.945 76.917 150.019 L 76.917 133.262 C 76.917 132.051 77.628 130.89 78.887 130.036 C 79.782 129.428 80.906 129.009 82.123 128.818 Z  M 82.105 128.867 L 82.12 128.825 L 80 129 L 82.105 128.867 Z  M 97.745 130.885 L 96.67 130.885 C 94.65 130.885 93.011 132.525 93.011 134.545 L 93.011 146.371 C 93.011 148.391 94.65 150.03 96.67 150.03 L 97.745 150.03 C 99.765 150.03 101.404 148.391 101.404 146.371 L 101.404 134.545 C 101.404 132.525 99.765 130.885 97.745 130.885 Z  M 97.877 128.826 L 92.496 114.746 C 91.684 112.621 92.84 110.554 95.077 110.134 L 95.342 110.084 C 97.578 109.664 100.054 111.048 100.866 113.174 L 106.612 128.211 C 106.785 128.663 106.868 129.112 106.865 129.542 C 106.956 129.861 107 130.198 107 130.546 L 107 145.972 C 107 148.165 105.257 149.953 103.083 150.028 L 103.083 133.271 C 103.083 132.06 102.372 130.898 101.113 130.044 C 100.218 129.437 99.094 129.018 97.877 128.826 Z " fill-rule="evenodd"/></svg>