<?xml version="1.0" encoding="UTF-8" standalone="no"?>
<svg
   xmlns:dc="http://purl.org/dc/elements/1.1/"
   xmlns:cc="http://creativecommons.org/ns#"
   xmlns:rdf="http://www.w3.org/1999/02/22-rdf-syntax-ns#"
   xmlns:svg="http://www.w3.org/2000/svg"
   xmlns="http://www.w3.org/2000/svg"
   id="svg15"
   version="1.1"
   height="192"
   width="192"
   viewBox="39 5 192 192"
   style="isolation:isolate">
  <metadata
     id="metadata21">
    <rdf:RDF>
      <cc:Work
         rdf:about="">
        <dc:format>image/svg+xml</dc:format>
        <dc:type
           rdf:resource="http://purl.org/dc/dcmitype/StillImage" />
        <dc:title></dc:title>
      </cc:Work>
    </rdf:RDF>
  </metadata>
  <defs
     id="defs19" />
  <g
     transform="translate(0,-34)"
     id="Icon">
    <path
       style="fill:#ffffff"
       id="path2"
       d="m 39,135 c 0,-52.984 43.016,-96 96,-96 52.984,0 96,43.016 96,96 0,52.984 -43.016,96 -96,96 -52.984,0 -96,-43.016 -96,-96 z" />
    <g
       id="Praying Hands">
      <path
         style="fill:#79c274"
         id="path4"
         d="m 118.762,132.367 h 2.894 c 5.537,0 10.032,4.496 10.032,10.033 v 32.543 c 0,5.538 -4.495,10.033 -10.032,10.033 h -2.894 c -5.537,0 -10.033,-4.495 -10.033,-10.033 V 142.4 c 0,-5.537 4.496,-10.033 10.033,-10.033 z m -0.383,-5.658 14.723,-38.708 c 2.218,-5.831 -0.958,-11.505 -7.089,-12.662 l -0.678,-0.128 c -6.13,-1.157 -12.908,2.637 -15.126,8.469 l -15.731,41.358 c -0.47,1.236 -0.698,2.465 -0.69,3.64 -0.246,0.868 -0.364,1.786 -0.364,2.73 v 42.443 c 0,6.002 4.764,10.901 10.714,11.118 v -46.047 c 0,-3.328 1.944,-6.519 5.387,-8.866 2.449,-1.669 5.525,-2.821 8.854,-3.347 z m -0.052,0.135 0.044,-0.114 -5.8,0.481 z" />
      <path
         style="fill:#79c274"
         id="path6"
         d="m 152.779,132.391 h -2.894 c -5.537,0 -10.032,4.496 -10.032,10.033 v 32.543 c 0,5.538 4.495,10.033 10.032,10.033 h 2.894 c 5.537,0 10.033,-4.495 10.033,-10.033 v -32.543 c 0,-5.537 -4.496,-10.033 -10.033,-10.033 z m 0.383,-5.658 -14.723,-38.708 c -2.218,-5.831 0.958,-11.505 7.089,-12.662 l 0.678,-0.128 c 6.13,-1.157 12.908,2.637 15.126,8.468 l 15.731,41.359 c 0.47,1.236 0.698,2.465 0.69,3.64 0.247,0.868 0.365,1.786 0.365,2.73 v 42.443 c 0,6.002 -4.764,10.901 -10.715,11.118 v -46.047 c 0,-3.328 -1.943,-6.519 -5.387,-8.866 -2.449,-1.669 -5.525,-2.821 -8.854,-3.347 z" />
    </g>
    <g
       id="Circle">
      <path
         style="fill:#79c274"
         id="path9"
         d="M 49,136.861 C 49.993,183.468 88.197,221 135.112,221 180.454,221 217.66,185.942 221,141.516 l -6.526,-6.516 -8.037,8.026 c -1.815,16.053 -9.033,31.118 -20.565,42.657 -13.465,13.416 -31.725,20.984 -50.76,20.984 -19.035,0 -37.295,-7.568 -50.76,-20.984 C 71.531,172.854 64.043,155.667 63.383,137.608 l -6.817,6.807 z" />
      <path
         style="fill:#79c274"
         id="path11"
         d="M 221,133.139 C 220.007,86.532 181.803,49 134.888,49 89.546,49 52.34,84.058 49,128.484 l 6.526,6.516 8.037,-8.026 c 1.815,-16.053 9.033,-31.118 20.565,-42.657 13.465,-13.416 31.725,-20.984 50.76,-20.984 19.035,0 37.295,7.568 50.76,20.984 12.821,12.829 20.309,30.016 20.969,48.075 l 6.817,-6.807 z" />
    </g>
  </g>
</svg>
