<?xml version="1.0" standalone="no"?><!-- Generator: Gravit.io --><svg xmlns="http://www.w3.org/2000/svg" xmlns:xlink="http://www.w3.org/1999/xlink" style="isolation:isolate" viewBox="280 490 20 20" width="20" height="20"><path d=" M 280 500 C 280 494.481 284.481 490 290 490 C 295.519 490 300 494.481 300 500 C 300 505.519 295.519 510 290 510 C 284.481 510 280 505.519 280 500 Z  M 283 500 C 283 498.14 283.74 496.36 285.05 495.05 C 286.36 493.74 288.14 493 290 493 C 291.86 493 293.64 493.74 294.95 495.05 C 296.26 496.36 297 498.14 297 500 C 297 501.86 296.26 503.64 294.95 504.95 C 293.64 506.26 291.86 507 290 507 C 288.14 507 286.36 506.26 285.05 504.95 C 283.74 503.64 283 501.86 283 500 Z  M 289.932 498.667 L 290.068 498.667 C 290.767 498.667 291.333 499.233 291.333 499.932 L 291.333 505.402 C 291.333 506.1 290.767 506.667 290.068 506.667 L 289.932 506.667 C 289.233 506.667 288.667 506.1 288.667 505.402 L 288.667 499.932 C 288.667 499.233 289.233 498.667 289.932 498.667 Z  M 288.667 496 C 288.667 495.264 289.264 494.667 290 494.667 C 290.736 494.667 291.333 495.264 291.333 496 C 291.333 496.736 290.736 497.333 290 497.333 C 289.264 497.333 288.667 496.736 288.667 496 Z " fill-rule="evenodd" fill="rgb(121,194,116)"/></svg>