<?xml version="1.0" standalone="no"?><!-- Generator: Gravit.io --><svg xmlns="http://www.w3.org/2000/svg" xmlns:xlink="http://www.w3.org/1999/xlink" style="isolation:isolate" viewBox="277 532.5 25 23" width="25" height="23"><g id="Group"><path d="M 279.5 532.5 L 299.5 532.5 C 300.88 532.5 302 533.62 302 535 L 302 535 C 302 536.38 300.88 537.5 299.5 537.5 L 279.5 537.5 C 278.12 537.5 277 536.38 277 535 L 277 535 C 277 533.62 278.12 532.5 279.5 532.5 Z" style="stroke:none;stroke-miterlimit:10;"/><path d="M 279.5 541.5 L 299.5 541.5 C 300.88 541.5 302 542.62 302 544 L 302 544 C 302 545.38 300.88 546.5 299.5 546.5 L 279.5 546.5 C 278.12 546.5 277 545.38 277 544 L 277 544 C 277 542.62 278.12 541.5 279.5 541.5 Z" style="stroke:none;stroke-miterlimit:10;"/><path d="M 279.5 550.5 L 299.5 550.5 C 300.88 550.5 302 551.62 302 553 L 302 553 C 302 554.38 300.88 555.5 299.5 555.5 L 279.5 555.5 C 278.12 555.5 277 554.38 277 553 L 277 553 C 277 551.62 278.12 550.5 279.5 550.5 Z" style="stroke:none;stroke-miterlimit:10;"/></g></svg>