<?xml version="1.0" standalone="no"?><!-- Generator: Gravit.io --><svg xmlns="http://www.w3.org/2000/svg" xmlns:xlink="http://www.w3.org/1999/xlink" style="isolation:isolate" viewBox="210 465 40 10" width="40" height="10"><path d=" M 210 470 C 210 467.24 212.24 465 215 465 C 217.76 465 220 467.24 220 470 C 220 472.76 217.76 475 215 475 C 212.24 475 210 472.76 210 470 Z  M 225 470 C 225 467.24 227.24 465 230 465 C 232.76 465 235 467.24 235 470 C 235 472.76 232.76 475 230 475 C 227.24 475 225 472.76 225 470 Z  M 240 470 C 240 467.24 242.24 465 245 465 C 247.76 465 250 467.24 250 470 C 250 472.76 247.76 475 245 475 C 242.24 475 240 472.76 240 470 Z " fill-rule="evenodd" fill="rgb(213,213,213)"/></svg>