<?xml version="1.0" standalone="no"?><!-- Generator: Gravit.io --><svg xmlns="http://www.w3.org/2000/svg" xmlns:xlink="http://www.w3.org/1999/xlink" style="isolation:isolate" viewBox="20 535.483 30 17.034" width="30" height="17.034"><path d=" M 41.679 543.867 L 42.177 543.867 C 43.224 543.867 44.074 543.084 44.074 542.119 L 44.074 538.214 Q 44.074 538.214 44.074 538.214 C 44.074 536.707 45.402 535.483 47.037 535.483 C 48.659 535.483 49.979 536.687 50 538.178 L 50 549.957 C 50 551.37 48.755 552.517 47.222 552.517 L 22.778 552.517 C 21.245 552.517 20 551.37 20 549.957 L 20 538.214 Q 20 538.214 20 538.214 C 20 536.956 20.925 535.896 22.182 535.58 C 22.373 535.539 22.573 535.518 22.778 535.518 L 23.442 535.518 C 24.838 535.728 25.907 536.837 25.926 538.178 L 25.926 542.119 C 25.926 543.084 26.775 543.867 27.822 543.867 L 28.259 543.867 L 28.29 543.867 L 28.29 543.867 C 29.342 543.867 30.199 544.714 30.216 545.762 L 30.216 545.762 L 30.216 546.133 C 30.216 547.053 30.963 547.8 31.883 547.8 L 38.117 547.8 C 39.037 547.8 39.784 547.053 39.784 546.133 L 39.784 545.793 C 39.784 544.741 40.631 543.884 41.679 543.867 L 41.679 543.867 Z  M 28.623 538.214 L 41.377 538.214 C 42.44 538.214 43.303 539.077 43.303 540.14 L 43.303 540.996 C 43.303 542.059 42.44 542.923 41.377 542.923 L 28.623 542.923 C 27.56 542.923 26.697 542.059 26.697 540.996 L 26.697 540.14 C 26.697 539.077 27.56 538.214 28.623 538.214 Z " fill-rule="evenodd"/></svg>