<?xml version="1.0" standalone="no"?><!-- Generator: Gravit.io --><svg xmlns="http://www.w3.org/2000/svg" xmlns:xlink="http://www.w3.org/1999/xlink" style="isolation:isolate" viewBox="263 203 34 34" width="34" height="34"><path d=" M 283.07 221.076 C 284.918 218.308 284.618 214.53 282.176 212.088 C 279.392 209.304 274.872 209.304 272.088 212.088 L 272.088 212.088 C 269.304 214.872 269.304 219.392 272.088 222.176 C 274.53 224.618 278.308 224.918 281.076 223.07 C 281.094 223.422 281.244 223.766 281.513 224.035 L 287.022 229.544 C 287.63 230.152 288.618 230.152 289.227 229.544 L 289.544 229.227 C 290.152 228.618 290.152 227.63 289.544 227.022 L 284.035 221.513 C 283.766 221.244 283.422 221.094 283.07 221.076 Z  M 274.106 214.106 C 272.435 215.776 272.435 218.488 274.106 220.158 C 275.776 221.829 278.488 221.829 280.158 220.158 C 281.829 218.488 281.829 215.776 280.158 214.106 C 278.488 212.435 275.776 212.435 274.106 214.106 L 274.106 214.106 Z " fill-rule="evenodd" fill="rgb(121,194,116)"/></svg>